<?xml version="1.0" encoding="UTF-8" standalone="no"?>
<!-- Created with Inkscape (http://www.inkscape.org/) -->

<svg
   version="1.1"
   id="svg2"
   width="793.73859"
   height="724.52002"
   viewBox="0 0 793.73859 724.5201"
   sodipodi:docname="2026-02-16_Wochenbriefing_060.svg"
   inkscape:version="1.2.2 (b0a8486541, 2022-12-01)"
   xmlns:inkscape="http://www.inkscape.org/namespaces/inkscape"
   xmlns:sodipodi="http://sodipodi.sourceforge.net/DTD/sodipodi-0.dtd"
   xmlns="http://www.w3.org/2000/svg"
   xmlns:svg="http://www.w3.org/2000/svg">
  <defs
     id="defs6">
    <clipPath
       clipPathUnits="userSpaceOnUse"
       id="clipPath18">
      <path
         d="M 0,0.028 H 595.275 V 841.889 H 0 Z"
         clip-rule="evenodd"
         id="path16" />
    </clipPath>
    <clipPath
       clipPathUnits="userSpaceOnUse"
       id="clipPath322">
      <path
         d="m 438.199,751.789 h 118.4 v 47.2 h -118.4 z"
         clip-rule="evenodd"
         id="path320" />
    </clipPath>
    <clipPath
       clipPathUnits="userSpaceOnUse"
       id="clipPath344">
      <path
         d="m 63.399,66.189 h 105.4 v 24.4 h -105.4 z"
         clip-rule="evenodd"
         id="path342" />
    </clipPath>
  </defs>
  <sodipodi:namedview
     id="namedview4"
     pagecolor="#ffffff"
     bordercolor="#666666"
     borderopacity="1.0"
     inkscape:showpageshadow="2"
     inkscape:pageopacity="0.0"
     inkscape:pagecheckerboard="0"
     inkscape:deskcolor="#d1d1d1"
     showgrid="false"
     inkscape:zoom="0.42048263"
     inkscape:cx="454.23993"
     inkscape:cy="228.30907"
     inkscape:window-width="1920"
     inkscape:window-height="975"
     inkscape:window-x="0"
     inkscape:window-y="32"
     inkscape:window-maximized="1"
     inkscape:current-layer="g10">
    <inkscape:page
       x="0"
       y="0"
       id="page8"
       width="793.73859"
       height="724.52008" />
  </sodipodi:namedview>
  <g
     id="g10"
     inkscape:groupmode="layer"
     inkscape:label="Page 1"
     transform="matrix(1.3333333,0,0,-1.3333333,0,1122.5197)">
    <g
       id="g316"
       transform="matrix(10.945412,0,0,10.945412,-4786.9048,-7919.3574)">
      <g
         id="g318"
         clip-path="url(#clipPath322)">
        <g
           id="g635">
          <path
             d="m 444.3,767.339 c 0,0 0.2,0.1 0.45,0.05 -0.1,-0.1 -0.35,-0.35 -0.45,-0.3 -0.05,0.05 -0.05,0.15 0,0.25 z m 13.5,0.2 c -1.65,0.8 -4.6,-0.8 -6.35,-1.25 -0.4,-0.1 -1.5,-0.55 -1.9,0.2 -0.4,0.75 0.7,1.6 0.65,1.65 -0.05,0.05 -1.35,-0.65 -1.45,-1.25 -0.15,-0.8 0.3,-1.25 1.05,-1.25 0.85,0 2.65,0.6 3.65,0.95 2.3,0.85 3.35,0.85 4,0.5 0.55,-0.35 0.45,-0.75 0.35,-1 -0.6,-1.1 -1.9,-0.05 -4.35,-0.85 -3.75,-1.15 -5.6,-0.3 -5.9,0.05 0.05,0.7 -0.25,1.8 -0.55,2.15 0,0 0.25,0.4 0.25,0.45 -0.15,0 -0.65,-0.3 -0.85,-0.25 -0.2,0.05 -0.8,0.1 -1.15,0.1 -0.55,0.05 -2.1,-0.55 -2.15,-0.6 -0.05,-0.1 -0.1,-0.85 -0.1,-0.85 0.6,0.6 0.8,0.05 0.65,-0.1 -0.25,-0.3 -1.45,-0.45 -1.35,0.5 h -0.05 c -0.25,-1.1 0.95,-0.9 1.45,-0.85 -0.15,-0.4 -0.3,-0.65 -0.6,-0.3 -0.05,-0.4 -0.1,-0.55 0.05,-0.65 0.1,-0.1 0.3,0.35 0.8,0.45 l -0.2,-0.9 c 0,0 -2,0.15 -1.95,0.2 0.1,0.7 -2.05,1.05 -2.15,-0.2 0.7,0 1.05,0 1.3,-0.55 l 2.6,-1.8 c 0,0 -1.15,-0.75 -1.55,-1.1 -2,0.25 -2.25,-0.4 -2.4,-0.8 h 3.65 l 3.8,1.05 c 0,0 0.05,0.2 0.1,0.3 3.45,-0.1 3.6,1.5 5.8,1.8 -0.1,-0.35 -0.35,-1.5 -0.45,-2.2 -2.15,-0.1 -1.95,-0.95 -1.95,-0.95 h 2.85 c 0.05,0.25 0.85,1.7 1.8,2.6 0.4,-0.9 2.65,-1.55 2.65,-1.75 -1.35,-0.3 -1.35,-0.9 -1.35,-0.9 h 2.2 l 0.4,1.95 -1.25,0.3 c 0.05,0.7 -0.3,2.1 -0.5,2.75 1.2,0.35 1.45,1.9 0.45,2.4 z"
             style="fill:#006b3e;fill-opacity:1;fill-rule:evenodd;stroke:none"
             id="path324" />
          <path
             d="m 446.2,775.839 c -0.15,-0.15 -0.4,-0.4 -0.45,-0.35 v 0.3 c 0,0 0.2,0.1 0.45,0.05 z m -1.15,-5.3 c 0,0 -1.15,-0.75 -1.55,-1.1 -2,0.25 -2.3,-0.4 -2.4,-0.8 h 3.6 l 3.8,1.05 c 0,0 0.05,0.2 0.1,0.3 3.45,-0.1 3.6,1.45 5.8,1.75 -0.1,-0.35 -0.35,-1.45 -0.45,-2.15 -2.15,-0.1 -1.95,-0.95 -1.95,-0.95 h 2.85 c 0.05,0.25 0.85,1.7 1.8,2.6 0.4,-0.9 2.6,-1.55 2.6,-1.75 -1.35,-0.3 -1.35,-0.9 -1.35,-0.9 h 2.3 l 0.4,1.95 -1.3,0.3 c 0.1,0.6 -0.3,2 -0.45,2.65 1.25,0.35 1.5,1.9 0.45,2.4 -1.6,0.8 -4.55,-0.8 -6.3,-1.25 -0.4,-0.1 -1.5,-0.55 -1.9,0.2 -0.4,0.75 0.7,1.6 0.65,1.65 -0.05,0.05 -1.35,-0.65 -1.45,-1.25 -0.15,-0.8 0.3,-1.25 1.05,-1.25 0.85,0 2.65,0.6 3.65,0.95 2.3,0.85 3.3,0.85 3.95,0.5 0.6,-0.35 0.45,-0.75 0.35,-1 -0.6,-1.1 -1.85,-0.05 -4.3,-0.85 -3.75,-1.15 -5.6,-0.3 -5.9,0.05 0.05,0.7 -0.25,1.8 -0.55,2.15 0,0 0.25,0.4 0.25,0.45 -0.15,0 -0.65,-0.3 -0.85,-0.25 -0.2,0.05 -0.8,0.1 -1.15,0.1 -0.55,0.05 -2.1,-0.55 -2.15,-0.6 -0.05,-0.1 -0.1,-0.85 -0.1,-0.85 0.6,0.6 0.8,0.05 0.65,-0.1 -0.25,-0.3 -1.45,-0.45 -1.35,0.5 h -0.05 c -0.25,-1.1 0.95,-0.9 1.45,-0.85 -0.15,-0.4 -0.3,-0.65 -0.6,-0.3 -0.05,-0.4 -0.1,-0.55 0.05,-0.65 0.1,-0.1 0.3,0.35 0.8,0.45 l -0.2,-0.9 c 0,0 -2,0.15 -1.95,0.2 0.1,0.7 -2.05,1.05 -2.15,-0.2 0.65,0.05 1,0.05 1.25,-0.45 z"
             style="fill:#006b3e;fill-opacity:1;fill-rule:evenodd;stroke:none"
             id="path326" />
          <path
             d="m 442.9,758.939 c 0,0 0.2,0.1 0.45,0.05 -0.15,-0.1 -0.4,-0.3 -0.45,-0.3 -0.05,0.05 -0.05,0.15 0,0.25 z m 13.45,0.2 c -1.65,0.8 -4.6,-0.8 -6.35,-1.25 -0.4,-0.1 -1.5,-0.55 -1.9,0.2 -0.4,0.75 0.7,1.6 0.65,1.65 -0.05,0.05 -1.35,-0.65 -1.45,-1.25 -0.15,-0.8 0.3,-1.25 1.05,-1.25 0.85,0 2.65,0.6 3.65,0.95 2.3,0.85 3.35,0.85 4,0.5 0.6,-0.35 0.45,-0.75 0.35,-1 -0.6,-1.1 -1.9,-0.05 -4.35,-0.85 -3.75,-1.15 -5.6,-0.3 -5.9,0.05 0.05,0.7 -0.25,1.8 -0.55,2.15 0,0 0.25,0.4 0.25,0.45 -0.15,0 -0.65,-0.3 -0.85,-0.25 -0.2,0.05 -0.8,0.1 -1.15,0.1 -0.55,0.05 -2.1,-0.55 -2.15,-0.6 -0.05,-0.1 -0.1,-0.85 -0.1,-0.85 0.6,0.6 0.8,0.05 0.65,-0.1 -0.25,-0.3 -1.45,-0.45 -1.35,0.5 h -0.05 c -0.25,-1.1 0.95,-0.9 1.45,-0.85 -0.15,-0.4 -0.3,-0.65 -0.6,-0.3 -0.05,-0.4 -0.1,-0.55 0.05,-0.65 0.1,-0.1 0.3,0.35 0.8,0.45 l -0.2,-0.9 c 0,0 -2,0.15 -1.95,0.2 0.1,0.7 -2.05,1.05 -2.15,-0.2 0.7,0 1.05,0 1.3,-0.5 l 2.6,-1.85 c 0,0 -1.15,-0.75 -1.55,-1.1 -2,0.25 -2.25,-0.4 -2.4,-0.8 h 3.6 l 3.8,1.05 c 0,0 0.05,0.2 0.1,0.3 3.45,-0.1 3.6,1.5 5.8,1.8 -0.1,-0.4 -0.35,-1.5 -0.45,-2.2 -2.15,-0.1 -1.95,-0.95 -1.95,-0.95 h 2.85 c 0.05,0.25 0.85,1.7 1.8,2.6 0.4,-0.9 2.65,-1.55 2.65,-1.75 -1.35,-0.3 -1.35,-0.9 -1.35,-0.9 h 2.3 l 0.4,1.95 -1.3,0.3 c 0.05,0.75 -0.3,2.1 -0.5,2.75 1.25,0.35 1.5,1.9 0.45,2.4 z"
             style="fill:#006b3e;fill-opacity:1;fill-rule:evenodd;stroke:none"
             id="path328" />
          <path
             d="m 490.5,779.489 c -0.7,0.55 -3.1,2.95 -7.9,2.8 -0.6,0 -1.15,-0.1 -1.65,-0.15 1,0.35 1.55,0.55 1.85,0.65 0.35,0.15 2.8,1 4.15,5.2 0.1,0.35 0.45,1.25 0.35,1.3 -0.1,0.1 -0.9,-0.05 -1.75,-0.55 -0.85,-0.5 -3.65,-0.95 -3.95,-1 -0.2,-0.05 -1,0.1 -2.25,-0.55 1.4,1.4 2.85,3.45 3.25,6.25 0.2,1.35 0.1,1.85 0.05,1.85 -0.1,0 -0.15,0 -0.25,-0.05 -0.3,-0.1 -0.6,-0.3 -1.65,-1 -1,-0.7 -2.1,-1.45 -2.1,-1.45 0,0 0.35,3.65 0.25,3.75 -0.1,0.1 -2.2,0.05 -5.45,-3.5 0,0 0.35,3.05 -0.25,4.2 0,0 -0.15,0.85 -0.3,1.3 -0.05,0.2 -0.25,0.45 -0.25,0.45 -0.05,0 -0.3,-0.05 -0.8,-0.6 -0.7,-0.8 -4,-1.8 -4.55,-6.05 -0.4,1.75 -1.3,4 -3.45,5.15 -1.25,1.2 -1.75,1.55 -1.85,1.55 -0.05,-0.05 -0.05,-0.55 -0.2,-1.75 -0.2,-1.35 -0.4,-1.75 -0.4,-1.75 0,0 -2.25,2 -2.35,2.05 -0.1,0.1 -1.45,-4.25 -1.1,-6.45 0,0 -0.65,0.55 -2,1.25 -1.5,0.75 -4,0.9 -3.95,0.8 0.05,-0.2 2.1,-4.25 3,-5.7 0,0 -5.6,0.95 -5.5,0.6 0.05,-0.1 0.15,-0.35 0.4,-1.2 0,0 -2.2,0.05 -2.15,-0.15 0.05,-0.2 1.65,-2.9 1.8,-3.05 0,0 -1.7,-0.35 -2.05,-0.35 -0.25,0 1.15,-3.8 4.9,-4.75 0.55,-0.15 1.05,-0.25 1.55,-0.3 0.45,-0.05 0.95,-0.1 1.4,-0.15 2.25,-0.1 3.7,0.5 3.4,1.25 0,0 -0.05,0.3 -2.35,1.15 0,0 0.05,0.3 0.2,0.3 0.15,0.05 2.5,-0.85 2.35,-0.7 -0.15,0.15 -1.05,1.1 -0.9,1.1 0.15,0 1.3,-0.5 1.65,-0.15 0.35,0.35 0.6,0.95 0.8,1.1 0.25,0.15 -0.65,0.95 0.5,0.55 0,0 0.75,0.45 0.15,1.15 -0.6,0.7 -2.55,3 0.6,0.25 0.75,-0.65 2.65,1.35 2.5,2.45 0,0 0.75,-0.75 0.9,-0.85 0.15,-0.1 1.2,-0.2 1.45,0.15 0.1,0.15 -0.4,1.65 -0.05,2.35 0,0 0.15,0 0.25,-0.15 0.15,-0.15 0.15,-1.7 0.7,-2 0,0 0.65,0.4 0.75,0.65 0.1,0.3 -0.15,-1.75 1.75,-0.85 0,0 0.95,0.85 1.2,0.85 0.25,0.05 -0.2,-1 0.05,-1.35 0.25,-0.35 1,-0.6 1.25,-0.15 0.25,0.45 1.45,1.35 1.55,1.3 0.1,-0.05 -0.6,-1.9 -0.7,-2.1 -0.1,-0.25 -0.2,-0.65 -0.2,-0.65 0,0 0.1,-0.5 0.75,-0.65 0,0 1.25,0.7 2.5,1.65 -0.15,-0.15 -0.25,-0.35 -0.4,-0.5 0,0 -1.65,-1.7 -1.65,-1.95 0,-0.25 0.55,-0.8 1.05,-0.5 0.45,0.3 1.6,0.8 1.7,0.7 0.1,-0.1 0.3,-0.3 0.05,-0.45 -0.25,-0.15 -1.55,-0.8 -1.55,-0.8 0,0 1.5,-0.1 3.35,0.25 -2,-0.8 -2.65,-2.05 -2.65,-2.15 0.05,-0.35 3.15,0.4 3.2,0.2 0.45,-0.95 -1,-0.35 -1.6,-0.45 -0.6,-0.1 -2.2,-0.15 -0.75,-1.4 0,0 0.25,0 -0.45,-0.45 -0.75,-0.45 1.6,-0.7 1.9,-1 0.3,-0.3 -2.3,0.05 -2.25,-0.75 0.05,-0.8 -0.45,-0.3 1.3,-2.15 0,0 -1.05,0.25 -1.15,0.1 -0.1,-0.15 2.25,-2.1 2.25,-2.65 0,0 -0.5,-0.35 -0.7,-0.05 -0.2,0.3 -1.65,1.85 -1.9,1.9 -0.2,0.05 -0.5,-0.05 -0.65,-0.35 0,0 0.65,-1.4 0.45,-1.45 -0.2,-0.05 -1.2,0.6 -1.2,0.6 0,0 -0.65,-0.25 -0.45,-0.8 0.2,-0.6 2,-2.6 1.85,-2.7 0,0 -0.15,-0.35 -0.4,-0.3 -0.25,0 -1.45,2.25 -1.75,2.3 -0.3,0.1 0.35,-2.05 0.35,-2.05 0,0 -1.1,1.15 -1.4,1.4 -0.3,0.25 -0.35,-0.25 -0.35,-0.25 l 0.3,-2.45 c 0,0 -3.45,5.05 -2.6,-1 0,0 -0.1,-0.35 -0.2,-0.35 -0.1,0 -0.85,2 -0.75,2.55 0.1,0.55 -0.6,-1.5 -0.6,-1.5 0,0 -1.1,4.25 -3.3,-0.1 0,0 -0.15,1.65 -0.5,1.95 -0.35,0.3 -0.6,0.4 -0.7,0.4 -0.05,0 -0.5,0 -0.95,-0.75 -1.55,-2.05 -2.6,-4.6 -2.85,-6.85 -0.05,-1.55 0.15,-4.4 0.05,-5 -0.05,-0.3 0.05,-0.35 0.1,-0.45 0,-0.05 0.6,0.4 0.8,0.5 0.3,0.2 3.15,4.05 3.3,5 0,0 1.55,-6.65 2.05,-7.35 0.1,-0.15 0.2,-0.35 0.3,-0.2 0.15,0.25 0.4,0.85 0.55,0.9 0.2,0.05 0.85,0.15 1.2,1.1 0.35,0.9 0.95,1.85 1.25,4.3 0,0 3.25,-4.1 3.65,-4.45 0.15,-0.15 1.05,1.25 1.45,3.6 0.4,2.35 -0.45,5.45 -1,5.6 0,0 -0.2,0.35 0.4,0.15 0.35,-0.15 1.7,-2.4 4.8,-4.2 0.5,-0.3 1.65,-0.3 1.65,-0.3 0.25,0.7 -2.2,7.05 -2.2,7.05 0,0 0.05,0.05 0.55,-0.15 0.5,-0.2 5.15,-3.2 8,-1.8 0.55,0.3 0.6,0.35 0.6,0.35 0.3,1.4 -2.15,4.05 -3.7,5.25 0,0 4,0.15 4.65,1.2 0,0 0.75,0.25 1.1,0.8 0.05,0.1 -0.45,1 -1,1.4 -1.5,1.05 -1.85,1.45 -1.85,1.45 0,0 0.4,0.5 1.05,0.7 0.6,0.2 2.6,1.4 2.05,2 0.15,0 0.8,0.55 0.75,0.7 0,0.1 -0.3,0.2 -0.5,0.35 z"
             style="fill:#006b3e;fill-opacity:1;fill-rule:evenodd;stroke:none"
             id="path330" />
        </g>
      </g>
    </g>
  </g>
</svg>
