<?xml version="1.0" encoding="UTF-8"?>
<svg width="64" height="64" viewBox="0 0 64 64" xmlns="http://www.w3.org/2000/svg">
  <!-- Green Party Sunflower Symbol -->
  <!-- Based on the official Wikimedia Commons version -->
  
  <!-- Outer petals ring -->
  <g fill="#22c55e" stroke="#15803d" stroke-width="0.5">
    <!-- Top petal -->
    <ellipse cx="32" cy="12" rx="4" ry="8" transform="rotate(0 32 32)"/>
    <!-- Top-right petal -->
    <ellipse cx="32" cy="12" rx="4" ry="8" transform="rotate(30 32 32)"/>
    <!-- Right-top petal -->
    <ellipse cx="32" cy="12" rx="4" ry="8" transform="rotate(60 32 32)"/>
    <!-- Right petal -->
    <ellipse cx="32" cy="12" rx="4" ry="8" transform="rotate(90 32 32)"/>
    <!-- Right-bottom petal -->
    <ellipse cx="32" cy="12" rx="4" ry="8" transform="rotate(120 32 32)"/>
    <!-- Bottom-right petal -->
    <ellipse cx="32" cy="12" rx="4" ry="8" transform="rotate(150 32 32)"/>
    <!-- Bottom petal -->
    <ellipse cx="32" cy="12" rx="4" ry="8" transform="rotate(180 32 32)"/>
    <!-- Bottom-left petal -->
    <ellipse cx="32" cy="12" rx="4" ry="8" transform="rotate(210 32 32)"/>
    <!-- Left-bottom petal -->
    <ellipse cx="32" cy="12" rx="4" ry="8" transform="rotate(240 32 32)"/>
    <!-- Left petal -->
    <ellipse cx="32" cy="12" rx="4" ry="8" transform="rotate(270 32 32)"/>
    <!-- Left-top petal -->
    <ellipse cx="32" cy="12" rx="4" ry="8" transform="rotate(300 32 32)"/>
    <!-- Top-left petal -->
    <ellipse cx="32" cy="12" rx="4" ry="8" transform="rotate(330 32 32)"/>
  </g>
  
  <!-- Inner petals ring -->
  <g fill="#34d399" stroke="#15803d" stroke-width="0.3">
    <!-- Offset inner petals -->
    <ellipse cx="32" cy="16" rx="3" ry="6" transform="rotate(15 32 32)"/>
    <ellipse cx="32" cy="16" rx="3" ry="6" transform="rotate(45 32 32)"/>
    <ellipse cx="32" cy="16" rx="3" ry="6" transform="rotate(75 32 32)"/>
    <ellipse cx="32" cy="16" rx="3" ry="6" transform="rotate(105 32 32)"/>
    <ellipse cx="32" cy="16" rx="3" ry="6" transform="rotate(135 32 32)"/>
    <ellipse cx="32" cy="16" rx="3" ry="6" transform="rotate(165 32 32)"/>
    <ellipse cx="32" cy="16" rx="3" ry="6" transform="rotate(195 32 32)"/>
    <ellipse cx="32" cy="16" rx="3" ry="6" transform="rotate(225 32 32)"/>
    <ellipse cx="32" cy="16" rx="3" ry="6" transform="rotate(255 32 32)"/>
    <ellipse cx="32" cy="16" rx="3" ry="6" transform="rotate(285 32 32)"/>
    <ellipse cx="32" cy="16" rx="3" ry="6" transform="rotate(315 32 32)"/>
    <ellipse cx="32" cy="16" rx="3" ry="6" transform="rotate(345 32 32)"/>
  </g>
  
  <!-- Center circle -->
  <circle cx="32" cy="32" r="10" fill="#16a34a" stroke="#15803d" stroke-width="1"/>
  
  <!-- Center pattern -->
  <g fill="#0f5132">
    <!-- Spiral pattern of small circles -->
    <circle cx="32" cy="32" r="1"/>
    <circle cx="29" cy="29" r="0.8"/>
    <circle cx="35" cy="29" r="0.8"/>
    <circle cx="29" cy="35" r="0.8"/>
    <circle cx="35" cy="35" r="0.8"/>
    <circle cx="26" cy="32" r="0.6"/>
    <circle cx="38" cy="32" r="0.6"/>
    <circle cx="32" cy="26" r="0.6"/>
    <circle cx="32" cy="38" r="0.6"/>
    <circle cx="27" cy="27" r="0.5"/>
    <circle cx="37" cy="27" r="0.5"/>
    <circle cx="27" cy="37" r="0.5"/>
    <circle cx="37" cy="37" r="0.5"/>
  </g>
</svg>