<?xml version="1.0" encoding="utf-8"?>
<!-- Generator: Adobe Illustrator 25.0.0, SVG Export Plug-In . SVG Version: 6.00 Build 0)  -->
<!DOCTYPE svg PUBLIC "-//W3C//DTD SVG 1.1//EN" "http://www.w3.org/Graphics/SVG/1.1/DTD/svg11.dtd" [
	<!ENTITY ns_extend "http://ns.adobe.com/Extensibility/1.0/">
	<!ENTITY ns_ai "http://ns.adobe.com/AdobeIllustrator/10.0/">
	<!ENTITY ns_graphs "http://ns.adobe.com/Graphs/1.0/">
	<!ENTITY ns_vars "http://ns.adobe.com/Variables/1.0/">
	<!ENTITY ns_imrep "http://ns.adobe.com/ImageReplacement/1.0/">
	<!ENTITY ns_sfw "http://ns.adobe.com/SaveForWeb/1.0/">
	<!ENTITY ns_custom "http://ns.adobe.com/GenericCustomNamespace/1.0/">
	<!ENTITY ns_adobe_xpath "http://ns.adobe.com/XPath/1.0/">
]>
<svg version="1.1" id="Ebene_1" xmlns:x="&ns_extend;" xmlns:i="&ns_ai;" xmlns:graph="&ns_graphs;"
	 xmlns="http://www.w3.org/2000/svg" xmlns:xlink="http://www.w3.org/1999/xlink" x="0px" y="0px" viewBox="0 0 158 168"
	 style="enable-background:new 0 0 158 168;" xml:space="preserve">
<style type="text/css">
	.st0{fill:#005CA9;}
	.st1{fill:#0079C2;}
	.st2{fill:#951B81;}
	.st3{fill:#FF8A15;}
	.st4{fill:#BC0A80;}
	.st5{fill:#80BA27;}
	.st6{fill:#FF0000;}
	.st7{fill:#008D33;}
	.st8{fill:#E30613;}
	.st9{fill:#FFEE00;}
	.st10{fill:#FF6700;}
	.st11{fill:#FFCC00;}
</style>
<metadata>
	<sfw  xmlns="&ns_sfw;">
		<slices></slices>
		<sliceSourceBounds  bottomLeftOrigin="true" height="154.2" width="153.2" x="538" y="-455.9"></sliceSourceBounds>
	</sfw>
</metadata>
<path class="st0" d="M87,140.3c0,0,10.8,13.9,12.2,15.2c0.6,0.5,3.6-4.4,4.9-12.3c1.4-7.9-1.2-16.4-2.3-19c-1-2.6-1.6-2.7-4.9-7.2
	c0,0-11.4-17.2-8.7,3.3c0,0-0.3,1.2-0.7,1.1c-0.4,0-2.8-6.8-2.5-8.6c0.3-1.8-2.1,5.1-2.1,5.1C81.2,124.3,80.9,131.6,87,140.3"/>
<path class="st1" d="M69.2,136.1c0,0,4.9,22.5,6.7,25c0.4,0.5,0.7,1.1,0.9,0.7c0.5-0.8,1.3-2.9,1.9-3.1c0.7-0.2,2.9-0.5,4.1-3.7
	c1.2-3.2,3.2-6.3,4.3-14.7c0.2-3.4,0.1-9.3-4-22.3c0,0-3.5-14.4-11.1,0.3C68.4,124.4,68.6,128.7,69.2,136.1"/>
<path class="st2" d="M42.7,121.2c-0.6,0.9-3.9,8.3-2.2,14.8c0,0,0.6,5.6,0.6,6.8c0,1.1,1.6,1.1,1.6,1.9c0,0.9,4.5-3.5,6.6-5.2
	c2.1-1.7,5-5,6.4-7.1c0.2-0.3,10.9-20.4,7.7-23.2c0,0,0.1-1-0.7-2.4c-0.9-1.4-1.7-0.9-6.9,4.6C48.1,115.6,46.5,114.9,42.7,121.2"/>
<path class="st3" d="M58.1,19.1c0,0-7.6-6.8-7.8-6.9c-0.4-0.4-5.1,14.4-3.8,21.7c0.5,7.1,6.7,19.5,6.8,19.5c0.6,0.2,2.6,1.6,5.9,4.6
	c2.5,2.2,9-5,8.5-8.6C71.4,39.5,65.2,26.3,58.1,19.1"/>
<path class="st4" d="M56,132.4c0.7,2.2-0.4,17.4-1,20.6c-0.2,1.2,0.1,1.3,0.3,1.7c0.1,0.1,2-1.5,2.7-1.9
	c0.9-0.6,10.6-13.5,11.3-16.7c2-3.5,3.5-6.5,2.7-17.8c0,0-0.5-5.6-1.6-6.5c-1.1-1-2.1-1.5-2.4-1.3c-0.3,0.2-2.9,2.7-4,2.9
	C60.1,115.9,55.8,126.1,56,132.4"/>
<path class="st1" d="M102.3,123.9c1.2,0.4,5.6,8.3,16,14.3c1.7,1,5.5,1,5.5,1c0.9-2.3-7.2-23.9-7.2-23.9c-0.8-2.9-3.7-9.7-9.8-12.6
	c-0.7,0.1-4-2.2-4-2.2s-2.2,0.9-1.5,2.9c0.7,2,6.5,8.7,6.2,9.1c0,0-0.5,1.1-1.3,1c-0.8-0.1-4.8-7.5-5.8-7.8c-1-0.3,1.1,6.9,1.1,6.9
	S98,108.9,97,108c-1-0.8-1.1,0.9-1.1,0.9s-0.1,4.3,1,8.2C98,121.1,101,122.6,102.3,123.9"/>
<path class="st5" d="M118.5,115.8c1.6,0.7,17.2,10.9,26.7,6.2c1.9-1,2-1.2,2-1.2c1.1-4.7-7.2-13.6-12.3-17.6
	c-5.3-4.5-12.5-7.2-22.4-9.1c0,0-3.5-0.8-3.9-0.3c-0.4,0.5,7.6,7.2,7.5,9.1c0,0-1.6,1.1-2.3,0.1c-0.7-1-5.5-6.4-6.3-6.6
	c-0.6-0.1-1.7,0.1-2.3,1.2c0,0,1.1,3.2,1.4,5.1C109.2,113,116.9,115.1,118.5,115.8"/>
<path class="st6" d="M47.9,95.7c0,0,2.4-2.9,1.7-3.2c-0.7-0.3-5.9-0.8-5.9-0.8s-0.6-0.9-0.7-1.1c-8.4,0.5-15-2.6-28.8,3.5
	c0,0-5.7,2.7-6.1,3.3c-0.3,0.4-0.5,0.7-0.4,0.8c0.1,0.1,0.4,0.6,1.4,1.2c2,1.3,18,3.1,22.5,3.2l1.1-0.1c0,0,0.1,0,0.1,0
	C41.3,102.5,47.9,95.7,47.9,95.7"/>
<path class="st5" d="M148.1,84.4c2.1-0.6,8.7-4.7,7-6.7c0,0,2.2-1.9,2.1-2.3c-0.1-0.4-1.1-0.8-1.7-1.3c-2.3-1.9-10.4-10-26.4-9.5
	c-2,0.1-3.9,0.5-5.6,0.5c-1.1,0-3.4,0.4-6.4,1.8c-6.5,2.9-9,6.8-8.9,7.2c0.2,1.3,10.5-1.3,10.8-0.7c1.5,3.4-3.3,1.3-5.4,1.6
	c-2.1,0.3-7.4,0.4-2.5,4.7c0,0,0.9,0.1-1.5,1.5c-2.4,1.4,5.4,2.3,6.3,3.4c6.2,1.6,22.8,4.5,28.8,2.4C144.6,86.7,146.1,85,148.1,84.4
	"/>
<path class="st7" d="M145,40.7c-0.3-0.3-3.1,0.2-5.9,1.9c-2.8,1.7-12.2,3.1-13.3,3.3c-0.7,0.1-3.4-0.3-7.5,1.8
	c-2.4,1.3-5.5,3.4-9.4,8c-0.5,0.5-0.9,1.1-1.4,1.7c0,0-5.6,5.7-5.6,6.6c0,0.8,1.9,2.7,3.5,1.7c1.6-1,5.4-2.6,5.7-2.3
	c0.3,0.3,0.9,1.1,0.1,1.5c-0.8,0.4-5.2,2.7-5.2,2.7s4.9,0.6,11-0.6c3.3-0.7,4.6-1.2,6.4-1.8c3.4-1.1,5.4-2,6.4-2.4
	c1.2-0.5,9.5-3.3,14-17.6C144.2,43.9,145.3,40.9,145,40.7"/>
<path class="st8" d="M33,77.7c-4.2-0.1-8.8,0.8-14.1,2.7c0,0-3.1,1.2-4.7,2.5c-1.6,1.3-9.7,2.6-10.1,3.8c0.2,0.9,9.8,7.5,9.8,7.5
	c6.8,4.7,20.4-3.1,28.8-3.7c0,0,0-0.1,0,0c0.5,0,1-0.1,1.5-0.1c1.5-0.2,3.6-0.7,3.6-0.7l-3.2-2.6c0,0,8.3-1.4,1-5.9
	c-2.7-1.6-5.5-2.8-8.5-3.3C36.4,77.9,35.6,77.7,33,77.7"/>
<path class="st9" d="M129.2,20.2c-0.3,0-0.4,0-0.8,0.1c-1,0.3-2.1,1.2-5.5,3.4c-3.4,2.3-7.1,4.8-7.1,4.8
	c-6.9,4.8-13.6,12.5-15.2,21.1c0.1,0,0,0.3-0.1,0.6c-0.4,1.6-2.1,5.9-2.3,6.4c-0.4,0.9-0.7,2.2-0.7,2.2s0.3,1.8,2.5,2.3
	c0,0,4.2-2.4,8.5-5.5c5-4.1,7.7-6.3,9.4-8c4.7-4.7,9.6-11.5,11-21C129.6,22.1,129.4,20.2,129.2,20.2"/>
<path class="st3" d="M54.5,62.1c-2.8-7.1-10.1-14.4-18.2-15.5c0,0-18.8-3.3-18.4-2.1c0.1,0.4,0.5,1.1,1.3,4.3
	c1.4,6.1,6.2,14.6,27.5,18.8c0,0,0.1,0,0.2,0c0.9,0.2,4.2,1.5,5.4,0.4c1.2-1.1,2-3.2,2.8-3.6C55.7,63.9,55,63.2,54.5,62.1"/>
<path class="st4" d="M21.7,131.4c5.5-0.2,14.6-5.5,16.3-6.7c1.7-1.2,4-3,4.7-3.6c9.9-6.4,11-5.2,13-9.8c0,0,2.2-5.3,2.2-7.1
	c0-1.8-2-2.2-2-2.2s-3.8,2.8-4.8,2.5c-14,1.3-21.7,12.2-26.4,18.4C23.7,124.6,20.9,131.4,21.7,131.4"/>
<path class="st7" d="M150.8,98.9c0,0,2.5-0.9,3.8-2.7c0.2-0.3-1.4-3.4-3.4-4.8c-5.1-3.6-6.2-4.9-6.2-4.9c-8.7-5-23.1-2-28.4-1.9
	c-0.8,0.2-8.2-0.6-8.1,2.1c0.1,2.6-1.5,1,4.2,7.2c5.5,5.7,13.5,9,22.4,9.1C135.2,103,148.7,102.5,150.8,98.9"/>
<path class="st9" d="M98,13.4c0,0-0.5-2.8-1-4.3c-0.2-0.7-0.8-1.5-0.9-1.5c-0.1,0.1-1.1,0.2-2.6,2c-2.4,2.7-13.5,6-15.5,20.4
	c-1.5,9.6-1.9,10.8-1.5,14.1c0,0.1,0.1,0.2,0.1,0.4c0.3,1.3,0.5,5.7,2.2,6.6c0,0,2.2-1.3,2.5-2.2c0.4-0.9-0.6,5.9,5.8,3
	c0,0,1.9-2.2,4.1-2.9c2.9-1.9,6.6-13.5,7.4-21.4C98.7,27.7,100,17.4,98,13.4"/>
<path class="st8" d="M50.5,104.5c0.7-1.3,2.3-3.9,2.3-4.8c0-0.3-0.4-0.2-0.4-0.2s-0.4-0.3-4.2,1.9l-6.1,3.9c-0.4-0.3-1-0.2-0.9-1.7
	c0.1-0.4,11.4-5.7,10.9-6.3c-0.5-0.6-4.3-1.5-4.3-1.5c-6.3-0.9-10.1,1.1-15,6.8c-0.6,0.9-11.1,13.4-11.4,20.1c0,0,2,0.2,3.1,0.3
	C34.5,123,43.4,114.3,50.5,104.5"/>
<path class="st10" d="M57.4,58.7c-1.1-0.9-3.6-4.3-3.8-5.8c-0.5-4.8,2.9-11-7-18.6c0,0-2.4-1.9-6.8-4.2c-5-2.6-13.3-3.1-13.3-2.7
	c0.1,0.7,7,14.4,9.9,19.2c7.7,11.2,16.2,14.7,19.2,15.6c0.1,0,0.3,0,0.4,0.1c0.2,0.1,0.5,0.1,0.8,0.2C56.8,62.5,59.4,61.1,57.4,58.7
	"/>
<path class="st11" d="M75.6,44.1c0,0,4.5-4.3,2.4-13.6c-1.3-5.8-4.2-13.6-11.5-17.5c-4.1-4-5.9-5.3-6.1-5.2
	c-0.2,0.1-0.1,1.9-0.8,5.9c-0.7,4.5-1.4,5.9-1.4,5.9c-3.5,9.4,1.9,22.8,9.6,30.2c0,0,2.5,2.6,3,2.8c0.5,0.3,4.1,0.7,4.9-0.5
	C76.1,51.6,74.5,46.4,75.6,44.1"/>
<path class="st11" d="M116.9,16c-0.4-0.3-7.4-0.2-18.3,11.8c-4.3,4.8-5.4,10.7-7.1,21.8c0,0,0,0.1,0,0.1c0,0.2,0,0.4-0.1,0.6
	c-0.2,1.1-0.6,2.6-0.1,3.4c0.8,1.2,3.4,2,4.3,0.5c0.9-1.5,4.9-4.5,5.2-4.4c6.4-4.6,13.5-11.2,15.2-21.1
	C115.9,28.7,117.3,16.3,116.9,16"/>
<path class="st6" d="M41,69.9c-9.6-3.8-3.6-11.7-23.1-10.5c0,0-5.7,1.1-6.9,1.1c-0.8,0,3.7,12.9,16.4,16.1c1.9,0.5,3.8,0.9,5.5,1.1
	c2.8,0.2,4,0.4,4,0.4c7.8,0.4,12.9-1.5,12.1-4.4C49,73.8,50.7,73.7,41,69.9"/>
<path class="st10" d="M46.3,67.3C38.9,57.8,32.1,50.1,19,48.5c0,0-7.4-0.2-7.3,0.4c0.1,0.7,5.5,9.8,5.9,10.3
	c5.6,7.9,15.6,8.8,23.2,11.1c0.1,0,0.6-1.3,1.1-1.2c2.2,0.6,8.4,2.9,7.9,2.5"/>
<path class="st6" d="M44.5,90.5c-0.5,0-1,0-1.5,0.1C43.1,90.7,43.7,90.7,44.5,90.5"/>
<path class="st6" d="M43,90.6C43,90.6,43,90.6,43,90.6C43,90.6,43,90.6,43,90.6"/>
<path class="st6" d="M32.8,102.5l-1.1,0.1C32.2,102.6,32.6,102.5,32.8,102.5"/>
<path class="st6" d="M32.8,102.5C32.8,102.5,32.8,102.5,32.8,102.5C32.8,102.5,32.8,102.5,32.8,102.5"/>
</svg>
