<?xml version="1.0" encoding="UTF-8"?>
<svg width="64" height="64" viewBox="0 0 64 64" xmlns="http://www.w3.org/2000/svg">
  <!-- Official Green Party Sunflower Symbol -->
  <!-- Simplified version based on Wikimedia Commons design -->
  
  <!-- Main petals - outer ring -->
  <g fill="#6CB33E" stroke="#4A7C28" stroke-width="0.5">
    <!-- 8 main petals -->
    <ellipse cx="32" cy="8" rx="3" ry="10" transform="rotate(0 32 32)"/>
    <ellipse cx="32" cy="8" rx="3" ry="10" transform="rotate(45 32 32)"/>
    <ellipse cx="32" cy="8" rx="3" ry="10" transform="rotate(90 32 32)"/>
    <ellipse cx="32" cy="8" rx="3" ry="10" transform="rotate(135 32 32)"/>
    <ellipse cx="32" cy="8" rx="3" ry="10" transform="rotate(180 32 32)"/>
    <ellipse cx="32" cy="8" rx="3" ry="10" transform="rotate(225 32 32)"/>
    <ellipse cx="32" cy="8" rx="3" ry="10" transform="rotate(270 32 32)"/>
    <ellipse cx="32" cy="8" rx="3" ry="10" transform="rotate(315 32 32)"/>
  </g>
  
  <!-- Secondary petals - offset for fuller appearance -->
  <g fill="#78C83E" stroke="#4A7C28" stroke-width="0.3">
    <ellipse cx="32" cy="10" rx="2.5" ry="8" transform="rotate(22.5 32 32)"/>
    <ellipse cx="32" cy="10" rx="2.5" ry="8" transform="rotate(67.5 32 32)"/>
    <ellipse cx="32" cy="10" rx="2.5" ry="8" transform="rotate(112.5 32 32)"/>
    <ellipse cx="32" cy="10" rx="2.5" ry="8" transform="rotate(157.5 32 32)"/>
    <ellipse cx="32" cy="10" rx="2.5" ry="8" transform="rotate(202.5 32 32)"/>
    <ellipse cx="32" cy="10" rx="2.5" ry="8" transform="rotate(247.5 32 32)"/>
    <ellipse cx="32" cy="10" rx="2.5" ry="8" transform="rotate(292.5 32 32)"/>
    <ellipse cx="32" cy="10" rx="2.5" ry="8" transform="rotate(337.5 32 32)"/>
  </g>
  
  <!-- Center circle -->
  <circle cx="32" cy="32" r="8" fill="#4A7C28" stroke="#2D4A18" stroke-width="1"/>
  
  <!-- Center seed pattern -->
  <g fill="#2D4A18">
    <circle cx="32" cy="32" r="1"/>
    <circle cx="29" cy="29" r="0.5"/>
    <circle cx="35" cy="29" r="0.5"/>
    <circle cx="29" cy="35" r="0.5"/>
    <circle cx="35" cy="35" r="0.5"/>
    <circle cx="27" cy="32" r="0.3"/>
    <circle cx="37" cy="32" r="0.3"/>
    <circle cx="32" cy="27" r="0.3"/>
    <circle cx="32" cy="37" r="0.3"/>
  </g>
</svg>